<?xml version="1.0"?>
<svg xmlns="http://www.w3.org/2000/svg" xmlns:xlink="http://www.w3.org/1999/xlink" viewBox="0 0 500 375">
  <defs>
    <radialGradient id="radial-gradient" cx="250" cy="187.5" r="423.08" gradientTransform="translate(0 37.5) scale(1 0.8)" gradientUnits="userSpaceOnUse">
      <stop offset="0" stop-color="#fff"/>
      <stop offset="0.46" stop-color="#f5f5f5"/>
      <stop offset="1" stop-color="#e3e3e3"/>
    </radialGradient>
  </defs>
  <title>Tribal_Cats</title>
  <g id="Background"/>
  <g id="Tribal_Cats" data-name="Tribal Cats">
    <path d="M127.35,139.16s8-4.95,11.08-7.91,22.84-15.94,28.44-14.88,7,17,5.26,25.1-7.62,26.86-24.73,34.18c0,0,22.38-15,22.75-36.83s-5.49-19.43-7.77-17.92a342.68,342.68,0,0,0-30,20.45s-3.66,2.08-5.89.59S127.35,139.16,127.35,139.16Z"/>
    <path d="M135.72,141.25s9-11.4,23.65-8.37c0,0-12.42.8-16.15,6.22,0,0,8.55-.4,11.81,5.51,0,0-12.1-6-19.49-.7C135.54,143.91,132.41,144.45,135.72,141.25Z"/>
    <path d="M144.26,157.72s.11-6.88-4.83-10,2.41-3.71,6.76-1.07,5.81,5.47,5.81,5.47-3.76-3.65-7.89-3.11C144.11,149,145.67,151,144.26,157.72Z"/>
    <path d="M121.41,139.59s5,1.18,6.09-3.29a5.12,5.12,0,0,1-4.23,1.77c-2.25,0-3.14-1.87-4.11,0C118.52,139.37,121.41,139.59,121.41,139.59Z"/>
    <path d="M122.16,136.83a6.8,6.8,0,0,0-7.81-4.11c-2.85.48-3,2.81-.38,2.7C114,135.42,118.05,132.77,122.16,136.83Z"/>
    <path d="M92.22,138.53s8.13-6.86,17.06-3.77a11.76,11.76,0,0,0-11.16-3.46c-7,1.52-9.53,5.39-9.53,5.39s-1.3,2-.19,2.83C90.77,141.35,92.22,138.53,92.22,138.53Z"/>
    <path d="M102.9,140a8.94,8.94,0,0,1,8.19-2.55s-8.54-2.31-11.9,0c0,0-2,1.58-.82,2.66S102,140.85,102.9,140Z"/>
    <path d="M131.11,164.82s-13.4-18-25.68-21.6c0,0-2.66-3.19,5.45-2.75s18.45.67,26.14,15.62c0,0-5.73-5.54-11.9-7.35S129.31,154.67,131.11,164.82Z"/>
    <path d="M133.14,158.57s9.79,14.47,3.31,21.16c0,0,6,1.16,7.05-11.28,0,0,7.76.16,8.92-7.4C152.42,161.05,145.59,166.34,133.14,158.57Z"/>
    <path d="M135.5,177.66s-9.26-22.08-25.57-23.6c0,0,5.92,3.17,7,7.51,0,0-18.73-2.69-23.39-.51,0,0,22.88,4.23,21,28.79,0,0,7.58-9.24,0-20.43,0,0-2.16-2.17.18-2.49C117.7,166.51,127.5,167.2,135.5,177.66Z"/>
    <path d="M146.4,188s-12.4.5-26.91-17.18c0,0,5.92,25.85-2.56,36.54,0,0,8.43.08,10.85-21.8C127.78,185.51,137.84,192.11,146.4,188Z"/>
    <path d="M87.38,129.05s.18-8-3.07-11.75-7,13.41-7,13.41-6.06.71-8.12,3.26-3,4.75-13.28,8.91c0,0,10-2.12,13.36-6.59s11.6-6.35,27.37-6C96.69,130.25,90.37,129.26,87.38,129.05Zm-7.56.47s1-8,3.06-9.68,2.21,9.59,2.21,9.59Z"/>
    <path d="M88.39,132.18s-2.65,2.38-2.61,5.27-2.47,3.15-2.7,1S86.08,132.7,88.39,132.18Z"/>
    <path d="M80.24,132s-2.77,4.29-6.78,4.73-3.86,4.16-.9,4.12S80,135.44,80.24,132Z"/>
    <path d="M80.74,136.14s2.28,5-1.39,9.14a8.65,8.65,0,0,1-8.7,2.52s-2.72-4.08,3.76-3.62C78.94,144.5,80.74,136.14,80.74,136.14Z"/>
    <path d="M71.69,150.75l11.66-.06s3.35-8.41,10.1-8.18,10.5,4,13.22,9.82c0,0-1.87-.08-4.87-3.83s-11.46-6.38-15.45.56S85.4,151.84,71.69,150.75Z"/>
    <path d="M96.18,151.69c1.41-1.47,1.69-3.49.63-4.5s-3.06-.65-4.47.82-1.69,3.49-.63,4.5S94.77,153.16,96.18,151.69Z"/>
    <path d="M42.93,155.25c-1-.28-2.22-2.89-.6-5.73A7.52,7.52,0,0,1,49.18,146c1.91.14,6.37,2,6.83,5.05s-1.29,5.2-3.71,5.2-2.75-2.45-2.68-3.53,1.89-1,1.66.45.18,1.57,1.45,1.73c2.36.29,3-3.52,1.18-5.18a10.62,10.62,0,0,0-4.71-2.46s-7.66.15-6,6.46c0,0,1.23,1.22,1.45-1,0,0-.17-1.08.83-1s1,1,.68,1.87A2.37,2.37,0,0,1,42.93,155.25Z"/>
    <path d="M43.6,157.6s1.95,3.22,1.93,4.64c0,0,1.73-3.22,4.39-4.2,0,0-3,.15-3.85,1.4A19.75,19.75,0,0,0,43.6,157.6Z"/>
    <path d="M57.33,144.85s1.52,1.17,8.36.14a29.62,29.62,0,0,1-8.11,1.38C53.7,146.35,56.14,143.74,57.33,144.85Z"/>
    <path d="M98.21,156.87s-10.36-2.9-17.33,2.3c-5.69,4.23,9.18,17.32,28.9,14.93,0,0-14.7-2.65-22.27-11.17C82.35,157.14,98.21,156.87,98.21,156.87Z"/>
    <path d="M41.23,156.68s-19.16,16.2,9.42,46.94C50.65,203.62,24.94,176.75,41.23,156.68Z"/>
    <path d="M45.72,172.7c-2.4-.42-5.38-1-5.93,4.59,0,0,.1-4.74,2.18-5.76s2.63-.75,3.47-7.87A14.13,14.13,0,0,0,51,175.07c10.7,8.27,15.12,10.75,25.23,14.3,0,0-11.13-2-23.21-12.07C53,177.3,47.36,173,45.72,172.7Z"/>
    <path d="M89.86,180.64s14.64,3.2,18.4,15.16c0,0-11.34,3.21-32.64,2,0,0,19.72,7.07,39.83,1.46,0,0,1.68-.23-2.14-6.17C108.92,186.32,103.93,182.46,89.86,180.64Z"/>
    <path d="M117.17,203.94s-14.64,10.34-28.56,6.35c0,0,13.08,18.46,30.5,8.32,0,0-13.14,2.87-18.31-4.34C100.8,214.27,108,214,117.17,203.94Z"/>
    <path d="M113.83,212.89A30.3,30.3,0,0,0,134.43,193s3.29,5.58,1.22,11.28C135.65,204.23,128.33,210.89,113.83,212.89Z"/>
    <path d="M139.21,182s12.17-1.9,19.4-9.75c0,0,5.86,19-21.17,35.11,0,0,14.2-14.38,15.57-24.39C153,183,149.67,185.33,139.21,182Z"/>
    <path d="M147.45,204.56s9.66-8.55,11.62-12.66a39.72,39.72,0,0,1-13.94,34.38s12-14.19,9.42-24.73C154.55,201.55,149.93,204.23,147.45,204.56Z"/>
    <path d="M102.3,224.78a70.74,70.74,0,0,0,42.61-15.51s3.18-2.49,4.21-1.09-1.55,23.79-35.52,34.1c0,0,13-8.28,21.21-19.89C134.81,222.39,113.82,229.6,102.3,224.78Z"/>
    <path d="M127.12,244.4s22.9-2.07,31.13-21.71c0,0-11.11,8.41-20.55,9.59l6.25,1.36S143,238.67,127.12,244.4Z"/>
    <path d="M83.45,222s10.78,15.46,40.81,6.54c0,0-6.87,9.87-27.09,9.79S76.34,216.31,83.45,222Z"/>
    <path d="M128.18,247.32s-19.57,1.8-33.78-5.21c0,0-4.24-1.47-2.62,1.65S97.38,254.35,104,256c0,0-3.51-3.58-3.49-6.26A52.17,52.17,0,0,0,128.18,247.32Z"/>
    <path d="M89.91,246.64s-14.59-11.22-15.36-24c0,0-1-2.91-3.54.42s-10.26,10.43-23.22,11.8c0,0,11.64,3.26,20.79-3.45,0,0,3.45-3.93,3.54,2C72.2,238.37,80.61,245.82,89.91,246.64Z"/>
    <path d="M90.28,258.69s-8-3-14.17-13C71,237.37,64.63,251.05,90.28,258.69Z"/>
    <path d="M49.06,247.78s14.85-4.47,17.41-10,7.16-1.42,3.5,3.25C64.4,248.19,49.06,247.78,49.06,247.78Z"/>
    <path d="M39.79,230.43s9.59.84,13.1-1.59,3.85,2.36-.22,3.2S39.79,230.43,39.79,230.43Z"/>
    <path d="M70.5,217.21s-5.7,17-30.06,3.9c0,0,19.77,3.4,12.47-16.33,0,0,10.53,9.43-.19,17C52.72,221.81,61,224.9,70.5,217.21Z"/>
    <path d="M34.51,212.54s9.73,5.94,16,.59-1.1-5.41-2.25-3.46S43.85,215,34.51,212.54Z"/>
    <path d="M310.61,110s.63-19.75-7.36-30.84c0,0-1.52-3.36-6.88,1.53s-30,20.2-23.13,40.48c0,0,13.38-1.32,16.83,8.44,0,0,.58-7.13-8.68-10.38s-9.13-20.12,15.32-36.45c0,0,2.78-1.88,4.91-.14C301.62,82.67,307.48,86.76,310.61,110Z"/>
    <path d="M290.14,96.32s-16.51,1.35-10.87,19.28c0,0,10,0,9.69-11.35,0,0-2.2,8.12-6.82,7.92C282.14,112.17,278.71,100.28,290.14,96.32Z"/>
    <path d="M284.13,128.48a9.3,9.3,0,0,1,4.1,4c1.79,3.14,8.26,12.61,15.3,10.6s11.06-13,7.73-28.15c0,0,.38,20.32-8.59,22.45s-11.22-4.3-13.7-6.47A10,10,0,0,0,284.13,128.48Z"/>
    <path d="M291.33,125.85s2.72-1.25,4.37.24,2,3.21,5,1.92,5.41-5.64,6.27-16.1c0,0,2.61,13.92-4.87,19.33,0,0-2.91,2.24-6-1.71C294.48,127.5,295,126.1,291.33,125.85Z"/>
    <path d="M295,108.69s-5.19,8.16-12,9c0,0-.28,1.15,2.7,1.52a27.21,27.21,0,0,0,8.55-.4s-6.15.33-6.49-1.2C287.8,117.63,291.82,115.82,295,108.69Z"/>
    <path d="M215.87,124.44s4.47-2.94,8.26-3.43c0,0,8.15-19.73-25.76-40.15,0,0-4.75-3.72-6.84,1.15,0,0-13,42.57,6.21,58,0,0,5.4-9.14,11.08-11.5a18.09,18.09,0,0,0-7.8,4c-3.22,3-5.41,4.94-9.1-2.39s-6.5-23.42.53-45.07c0,0,1.45-4.66,7.18-.5s23.59,13.76,22.07,35.38C221.7,119.84,218.67,120.25,215.87,124.44Z"/>
    <path d="M218.1,117.71s4.12-17-10.73-23.69c0,0,6.91,4.87,6.16,11.9,0,0-4.53-5-11.26-3.73C202.27,102.19,211.89,100.73,218.1,117.71Z"/>
    <path d="M198.49,118.59s9.25,2.76,15.87-3c0,0-7.37-9.35-18.26-5.92,0,0,11.76-1.47,14.64,5.67C210.74,115.39,208.44,119.51,198.49,118.59Z"/>
    <path d="M205.34,123.08c-2.71,1.44-5.63,10.54-10.63,6.39s-4.12-16.18-4.12-16.18,1.35,9.35,4.51,10.7,3.78,1.52,7.05-.51S205.34,123.08,205.34,123.08Z"/>
    <path d="M224.25,105a15.33,15.33,0,0,1,2.12,10.82S232.2,106,247.92,107c15.22.94,19,6.11,22.22,11.85,0,0-.47-11.21,1.8-14.93,0,0-3.5,5.27-3.94,9.69,0,0-14.49-14.87-39.28-2.76C228.72,110.87,226.75,106.81,224.25,105Z"/>
    <path d="M241.37,111.07s-12.24-.61-14.25,11.91c0,0-.76,3.73,2.23,3.94C235,127.32,231.31,113.37,241.37,111.07Z"/>
    <path d="M255.4,111.05s12.33,2,12.66,11.44c0,0,.24,2.82-2.38,2.64C260.77,124.78,263.87,113.87,255.4,111.05Z"/>
    <path d="M243.9,110.71s-3.77,10.81-7.3,13.59-2.77,3.66-.46,6.49,3.8,10.13,1.33,14.46c0,0,7-7.13,1-17.69C238.44,127.56,243.07,125,243.9,110.71Z"/>
    <path d="M250.13,109.94s4.44,10.62,9.88,14c0,0,3.37,1.47.87,5.19s-3.2,10.85-1.06,15.17c0,0-7.08-5.82-3.05-17.06C256.77,127.25,252.44,124.69,250.13,109.94Z"/>
    <path d="M254.27,127.13s-5.08-1.33-7.46-17.43c0,0-.06,12.74-6,18.3,0,0,9.16,12.29-2.21,22a15.82,15.82,0,0,0,9.26-8.2s4.06,6.46,10.92,6.28C258.82,148.09,244.62,142.85,254.27,127.13Zm-6.58,7c-.06-3.89-3.85-5.88-3.85-5.88a5.13,5.13,0,0,0,3.48-4.37c-.19,2.78,4,4.25,4,4.25C248.68,128.2,247.69,134.09,247.69,134.09Z"/>
    <path d="M242.63,150.29s6.2,3.2,11.5-.78c0,0-4.57-1.57-6-5.1C248.13,144.41,247.8,148,242.63,150.29Z"/>
    <path d="M258.41,153.91c-1.92-3.65-5.75-1.41-5.94-1s-5.27,1.23-7.76-.11-6.07-.43-6.51,3.38,4.11,4.56,4.11,4.56c5.23,6.38,5.35,6.38,7,6.25,1.8-.15,4.91-5.67,4.91-5.67A4.93,4.93,0,0,0,258.41,153.91ZM254.3,159c-.72-.44-1.33-.64-1.93.12a1.68,1.68,0,0,0,.33,2.36s-2.2,4.28-3.69,4.17-4.39-3.05-4.8-4.33c0,0,1.69-.93.95-1.83-.94-1.12-1.27-1.59-3.16-.22,0,0-4.7-1.33-1.6-4.87a2.43,2.43,0,0,1,3.58-.13,11.83,11.83,0,0,0,9.49-.34s3.3-1.6,4,1.06S256.58,160.38,254.3,159Z"/>
    <path d="M268.34,182.67s-12.92-2.83-17.76-10c0,0-2.07-2.65-5.24.89s-8.45,9.77-17.49,10c0,0,6.81,1.81,14.15-4.11,8.4-6.76,7.69-4.54,12.13-1.4S264.46,182,268.34,182.67Z"/>
    <path d="M232,137.68s-2.16-9.12-7.86-9.13-8.84,3.86-11.11,6.22c-2.06,2.15-4.45,5.78,2,11.91,0,0-3.28-5.41-1.42-8.45C214.7,136.39,221.34,125.08,232,137.68Z"/>
    <path d="M225.9,140c-.21,2.93-1.82,5.2-3.6,5.08s-3.06-2.6-2.85-5.53,1.81-5.2,3.59-5.07S226.1,137.07,225.9,140Z"/>
    <path d="M276.87,137.39c.23,2.41-1,4.49-2.82,4.67s-3.41-1.64-3.64-4.05,1-4.49,2.81-4.66S276.63,135,276.87,137.39Z"/>
    <path d="M264.48,137.06s1.74-10.56,5.95-11.6,6.6.8,9.66,3.48c3.41,3,12.26,9.13.44,16.83a32.77,32.77,0,0,0,3.94-6.12c1.55-3.27-6.42-8.52-7.48-9.39S270.2,125.11,264.48,137.06Z"/>
    <path d="M274.83,146.87s-9-1-9.66-5.4-4.64,5.4-3.72,12c0,0,1.19-7.09,3.93-7.83S269.12,148,274.83,146.87Z"/>
    <path d="M222.74,148.23s8.1-1.44,9-6.76,5.76,8.92,4,12.93c0,0-2.19-7.37-4.32-8.2S227.48,148.81,222.74,148.23Z"/>
    <path d="M184.82,124.07s-2,19.51,11.28,20.62c0,0,3.44-.93-.29,4.16s-6.47,15.58-5.53,23.67c0,0-5.55-9,1.74-24.91C192,147.61,180.19,144.84,184.82,124.07Z"/>
    <path d="M318.15,128.81s-1.12,12-11.45,16.69c0,0-3.24.63.9,5.39,10.8,12.4,4.87,21.68,4,28,0,0,9.05-15.07-.46-29.74A24.7,24.7,0,0,0,318.15,128.81Z"/>
    <path d="M309.61,167s.21-13.65-18.34-27.73c0,0,8.8,10.27-7.79,9.23C283.48,148.48,301.82,149.26,309.61,167Z"/>
    <path d="M208.4,136.88s-5.73,7.87-8.6,11.27-8.92,18.19-7.24,26.31c0,0,.94-22.34,19.88-24.42C212.44,150,200.67,149.94,208.4,136.88Z"/>
    <path d="M204.76,163.13s4-11,12.26-12.17,10.55,1.58,12.46-1.59,11.78,20.46-19.24,16c0,0,17,.19,17.4-10.44C227.64,155,212.16,150.5,204.76,163.13Z"/>
    <path d="M294.21,168.78s.15-8.49-4.92-13.88c-3.71-3.94-6.53-3.34-10.14-3.72s-9.1-.69-10.4-1.76-3.59-1.82-2.77,3.17.15,13.47,18.65,11.88c0,0-15.4-1.08-14.29-10.4,0,0,5.16,1.5,8.52,1.23C283,155,289.76,153.56,294.21,168.78Z"/>
    <path d="M288.71,174.51s16.52-.45,8.1-15.82c0,0,11.25,6.72,11.3,17.92S298,196.28,285.46,195.4c0,0,18.93-3.82,16.55-20C302,175.44,296.79,180.86,288.71,174.51Z"/>
    <path d="M202.41,159.46s-6.58,7.77-2.49,13.74,16.79,5.88,14.14-3.93c0,0,5.26,3.68,2.65,9.81s-13.89,2.79-13.89,2.79a23.47,23.47,0,0,0,16.28,8.88s-19.17,3.34-23.79-13.37C192.16,166,202.41,159.46,202.41,159.46Z"/>
    <path d="M179.69,137.69s-.58,8.2,3.62,10.31,4.74-.87,3.12-1.65S182,144.71,179.69,137.69Z"/>
    <path d="M177.6,167.45s.43-13.33,8.6-17.77c0,0,2.3-1.51.69,3.39s-6.13,21.79,11.73,33.9c0,0-7.17-2.42-8.55-4.36,0,0-.68,9.73-7.39,12.43a15.22,15.22,0,0,0,3.48-15.12c-2.87-9.06-4.08-8.81-2.21-25.14C184,154.78,181.16,154.84,177.6,167.45Z"/>
    <path d="M172.62,194.34s8,10.55,15.71,1.1c0,0-8.82,22.19-.52,32.54,0,0-11.21-1-7.09-24C180.72,203.93,172.9,201.12,172.62,194.34Z"/>
    <path d="M200.64,190.07S189,193,189.31,206.53c0,0,4.64-3.68,9.54-2.83,0,0-19.53,26.44,19.29,47,0,0-35.88-26.58-5.29-55,0,0-11.84-1-17.26,1.79C195.59,197.45,194.93,194.66,200.64,190.07Z"/>
    <path d="M321.69,137.79s-2.19,6.24-4.29,8.62c-1.76,2-.06,5.84,8.53,4.91,0,0-7.38.11-5.84-4.88C321.92,140.48,321.69,137.79,321.69,137.79Z"/>
    <path d="M316.87,154s9.88,1.05,4.1,19.19c0,0-1.55,4-.42,6,1.73,2.92,3.8,7.82,2.5,13.25,0,0-.59-7.39-3.71-9,0,0,.34,8.14-3.58,12.25,0,0,2.76-5.62.55-15C314.21,171.68,326.65,163.82,316.87,154Z"/>
    <path d="M313.64,183s-4.24,19.35-20.82,19.94c0,0-5-.47-3.62,3.38,1.08,3.08-.16,13-13.1,24.14,0,0,16-3.51,20.63-22.61C296.73,207.8,313.62,203.47,313.64,183Z"/>
    <path d="M272.62,199.09s23.67,7.93-1,31c0,0,8.36-18.46-6.24-21.49,0,0,8.67,11.89-7.78,26.77,0,0,11.37-21,2-29.18s12.29-5,17.59,8.25C277.22,214.45,283.12,207.85,272.62,199.09Z"/>
    <path d="M232.59,236.13s-16.64-20,.94-34.77c0,0,6-3.08-2.53-2.93s-20.22,9.36-19.26,24.21c0,0,3-12.06,9.39-14.63C221.13,208,218.91,227.41,232.59,236.13Z"/>
    <path d="M238.83,236.57s-1-19.87,6.06-26.89,6.35,39.29-10.26,54.67c0,0,21.89-8.25,18.66-58.84,0,0-1.19-12.78-9.81-.69C235.52,216,236,230.36,238.83,236.57Z"/>
    <path d="M223.44,252.37a39.37,39.37,0,0,0-5.07-5c-3.24-2.73-12.07-11.87-1.21-29,0,0,1.59-1.61,1.13,2.64,0,0-2.7,5.1,5,16.33s13.84,21.86,3.76,32.18c0,0,7.92-13.32-4.81-25.74S221.41,247.88,223.44,252.37Z"/>
    <path d="M266.61,232.34S271,244,259.85,252.58c-8,6.13-16.46,8.49-19.53,21.19,0,0-5.27-8.49,12.4-21.44C267.09,241.81,266.61,232.34,266.61,232.34Z"/>
    <path d="M282.42,232.28s-10.57,1.66-13.6,16.17c-2.22,10.67-6.19,16.69-17.76,22.06,0,0,11.35.3,19.23-14.35,0,0,5.25-5.82,7.86,2.22,0,0,.53-2.8-3.62-7.94S273.64,239.68,282.42,232.28Z"/>
    <path d="M294.47,219.3s-2.36,14-16.73,25.85c0,0,26.5-3.8,29.21-37.62,0,0-5.17,18.92-15.07,25.41C291.88,232.94,295.2,226.24,294.47,219.3Z"/>
    <path d="M293.67,244.43s13.73-2.8,16.38-24c0,0,.06-3.54,2.27-1.55s4.47,5.64,13.41,6.78c0,0-4.52,2.51-11.64-.82C314.09,224.8,310,242.57,293.67,244.43Z"/>
    <path d="M327.38,216.39s-9.74,4.33-15.59-5.78-.09-4.18,4.17-5.38,11-6.42,9.78-13.19c0,0,3.77,15-8.55,17C317.19,209,316.42,215.45,327.38,216.39Z"/>
    <path d="M443.09,158.12s6.05-20,2.34-34.46-23.52,20.25-23.52,20.25a17.69,17.69,0,0,0-4.32-2.68s4.81,4.45,4.84,6.65c0,0,7.06-18.12,17.42-23.9S443.09,158.12,443.09,158.12Z"/>
    <path d="M436.91,139.41s-6.75-.14-9.62,5.78,4.59.72,9.23,5.86a5.7,5.7,0,0,0-3.46-3.94C430.19,146.06,427.74,142.36,436.91,139.41Z"/>
    <path d="M390.13,145.51s14.81-.42,22.88,4.39,6.57-.77,6.07-3c-.41-1.86-2-5-7-6.56,0,0,5,4.27,3.58,5.76S406,140.45,390.13,145.51Z"/>
    <path d="M379.42,140.25s2.79,6.17,9.61,7S382.78,153.84,379.42,140.25Z"/>
    <path d="M414.46,164s-11.1-12.27-19.93-15.61,18.45,1.64,26,9.89c0,0,2.1-6.51,2-8.45s2.72.4,4.09,2.48,3.6,9.11,1.76,12.8c0,0-.29-5.71-2-8.74-1.4-2.41-2.36-5.1-4.08,3.84,0,0-.05,3.7-3.34.17s-15.46-9.87-10.84-5A71.49,71.49,0,0,1,414.46,164Z"/>
    <path d="M432.3,164.53s1.62-7.95-2.66-11.72,1-1.59,1.34-1.24,9.35,5.8,11.88,14.83c0,0-5.17-7.55-8-8.49S436,160.36,432.3,164.53Z"/>
    <path d="M410.64,165.79s-12.27-18.5-30.07-16.14c0,0-1.13.92,1.34,1.32s7.4,2.13,8.6,6.09c0,0-20.19-3.25-27.44,21.42,0,0,9.15-13.4,21.58-15.94s12.08.86,12.25-1.76-3.89-5.6-3.89-5.6S398.92,154.2,410.64,165.79Z"/>
    <path d="M355.29,178.83s6.86-11.11,12.17-15.1c5.53-4.15,13.68-13.4,5.39-23.25s-32-38.79-36.32-14.52S339,168,345,177.47c0,0-15.45-27.51-5.16-55.31,0,0,2-7.76,10.28-.85s16.23,15.78,20.43,22,4.41,12.28-6,21.2C359.84,168.47,355.29,178.83,355.29,178.83Z"/>
    <path d="M354.74,139.56a20.29,20.29,0,0,1,15,11c3.72,7.07-5.5-3.1-16.6,1.69,0,0,4.31-3.38,12.59-2.92C365.7,149.36,364.39,144.28,354.74,139.56Z"/>
    <path d="M358,165.55s2.67-3.9,6.3-4.69,5-4.17,1.17-4.94-9.23-2.21-9.23-2.21,10.22,3.82,8,5.08S358,165.55,358,165.55Z"/>
    <path d="M413.23,166.87s8.19,7.22,7.31,11.15-4.89,7.12-7,4c0,0-1.09-1.76,1.09-3S420,175,413.23,166.87Z"/>
    <path d="M432.94,182.28s-6-5.9-.57-10.86c4.4-4,9.5-5.3,12.1,1.1s-2.19,8.82-5.23,9.06c0,0,6.61-2.73,4.5-7.73s-5.36-6.36-10.3-1.76.16,8.42.63,8.9S435.09,183.62,432.94,182.28Z"/>
    <path d="M439.69,176.43c-.06,1.78-1.14,3.19-2.43,3.15s-2.26-1.53-2.21-3.31,1.15-3.2,2.43-3.16S439.75,174.64,439.69,176.43Z"/>
    <path d="M398.6,173.79c-.37,1.83-1.73,3.1-3,2.83s-2.07-2-1.71-3.79,1.73-3.09,3-2.83S399,172,398.6,173.79Z"/>
    <path d="M408.76,178.31c-2.44-2.23-1-3.4-2.88-7.7s-7-5.66-7-5.66c-9.76-2.32-14.74,5.9-14.74,5.9,4.56,9.12,13.88,9.85,18.15,8.08s4.93.66,6.05,1.34S411.21,180.55,408.76,178.31ZM404,177.14c-2.8,1.94-13.73,4-18.5-6,0,0,5.28-7.1,12.44-5.05S406.84,175.16,404,177.14Z"/>
    <path d="M445.68,165.7s7.47,13.09-1.77,16.42,3.78-.59,8.36,14.25c0,0-.07-6.66-2.37-10.28a4.18,4.18,0,0,0,3.46-4C453.51,178.57,450.38,172,445.68,165.7Z"/>
    <path d="M441.9,186.2s14.74,9.7,10.32,23.08c0,0,.46-4.83-1.59-6,0,0-2.51,10.54-12.38,13.28C438.25,216.55,454.65,203.13,441.9,186.2Z"/>
    <path d="M393.53,180.32s-9.55-3.23-15-3.56a12.45,12.45,0,0,1,2.73-5.67s-13.39,3.68-19.79,23.06C361.5,194.15,374.78,177.65,393.53,180.32Z"/>
    <path d="M365.88,197.12s11.87-20.41,39-14.1c0,0-16.1,17.21-32.18,13.79,0,0,11.14-1.06,16-7.67C388.68,189.14,381.13,185.62,365.88,197.12Z"/>
    <path d="M405.46,187.57S388.37,206,361.4,208.42c0,0,19.48,7.12,34,2.87,0,0-7.36-1-8.79-5.26C386.58,206,396.49,202.34,405.46,187.57Z"/>
    <path d="M341,178.55s4.16,3.06,14.57,4.43a35.79,35.79,0,0,0-14.66,10.39s2.83-6.92,6.53-9C347.45,184.34,341.69,181.46,341,178.55Z"/>
    <path d="M353.26,188.89s-11.6,4.25-16.32,11.37c0,0,2.8-1.94,5.11-1.53,0,0-6.26,9.24-4.68,19.65C337.37,218.38,341.08,198.5,353.26,188.89Z"/>
    <path d="M362.33,181.6s-5.73,12.34-13.84,18.11c-7.09,5,19.07,8.26,27.54-.18,0,0-11.63,3.24-20.86.4A36.72,36.72,0,0,0,362.33,181.6Z"/>
    <path d="M346.26,227s-6.08-3.89-2.33-19.67c2.48-10.41.1,8.83,16.74,11.69,0,0-7.64,1.38-14.85-5.74C345.82,213.24,343.21,218.4,346.26,227Z"/>
    <path d="M351.7,208.18s8.23,6.44,32.5,11.31c17.58,3.53-14.94,5.83-24.05,1.7,0,0,9.71,1.27,10.43-1.78C371.08,217.33,359.82,218,351.7,208.18Z"/>
    <path d="M367.63,228.75s4.46-4.58,35.39,5.26c0,0-7.06,15.23-43.18,0,0,0,25.75,7.92,28.61-.06C388.45,234,382.83,230.44,367.63,228.75Z"/>
    <path d="M424.12,234.91a20.65,20.65,0,0,1,7.4-5.11c4-1.38,14.39-1.53,19.13-16.21,0,0,2,11.2-8.57,16.93,0,0,6.61,2.81,7.42,5.76C449.5,236.28,437.53,227.1,424.12,234.91Z"/>
    <path d="M445,239.88s-22.08-10.35-29.2,11.47c0,0,11.63-.32,18.29-4.34,0,0-7.72.4-8.06-1.06S428.36,237.29,445,239.88Z"/>
    <path d="M390,245.22s17.43.71,24.88-7.48c0,0,.43,25.33-18.93,20,0,0,11.42-2.36,12.13-11.68C408.12,246.09,397.25,249,390,245.22Z"/>
    <path d="M393.61,253.91s-50-2.14-43.66-33.77c0,0,.43-1.83,3.55,3s9.81,7.91,16.05,9.39c0,0-10.74-.55-14.51-4.31S351.75,244.9,393.61,253.91Z"/>
    <path d="M402.23,212.74a13,13,0,0,0,13.17-.9c7.31-4.9,14-8.41,14-8.41l1.43-3.69.08,3.87s4.31,3.83,5.41,8.1c0,0-3.24-6.82-6.38-6.91-2.67-.08-6.21,2.42-9.63,4.64S409.8,217.68,402.23,212.74Z"/>
    <path d="M435.52,214.93s-5.5,13.66-11.18,16.17S398.57,225,398.57,225s19.73,7.19,24.94,4.44C430.9,225.49,435.52,214.93,435.52,214.93Z"/>
    <path d="M431.36,191.39l-1,4.3-3.28-2s2.66,5.53,4,5.52,2.86-5.67,2.86-5.67l-1.84,2Z"/>
    <path d="M427,192.65s-5.93-.2-5-4.31,12.16-3.69,15.9-1.06-3.68,5-3.68,5a.79.79,0,0,1-1-.78c-.15-1.16,1.48-.47,2.14-.65,2.6-.67,3.66-2.68,1.38-3.49s-7.93-2.6-12.8-.1c0,0-3.1,1.9.18,3.85,1.95,1.16,3.9-1.12,4.05.36C428.2,192.5,427.56,192.7,427,192.65Z"/>
  </g>
</svg>
