<?xml version="1.0" encoding="utf-8"?>
<!-- Generator: Adobe Illustrator 19.0.0, SVG Export Plug-In . SVG Version: 6.00 Build 0)  -->
<svg version="1.1" id="Layer_1" xmlns="http://www.w3.org/2000/svg" xmlns:xlink="http://www.w3.org/1999/xlink" x="0px" y="0px"
	 viewBox="0 0 1096 780" style="enable-background:new 0 0 1096 780;" xml:space="preserve">
<style type="text/css">
	.st0{fill:none;stroke:#1A1A1A;stroke-width:2;stroke-miterlimit:10;}
	.st1{fill:#ED1C24;}
	.st2{fill:url(#SVGID_1_);}
	.st3{fill:url(#SVGID_2_);}
	.st4{fill:url(#SVGID_3_);}
	.st5{fill:url(#SVGID_4_);}
	.st6{fill:url(#SVGID_5_);}
	.st7{fill:#ED1C24;stroke:#1A1A1A;stroke-width:2;stroke-miterlimit:10;}
	.st8{fill:url(#SVGID_6_);}
	.st9{fill:#C1272D;stroke:#1A1A1A;stroke-width:4;stroke-miterlimit:10;}
	.st10{fill:#1A1A1A;}
	.st11{fill:url(#SVGID_7_);}
	.st12{fill:#FFFFFF;}
	.st13{fill:url(#SVGID_8_);}
	.st14{fill:url(#SVGID_9_);}
</style>
<g>
	<path class="st0" d="M548.4,140.5c0,0-4.7,30,0.2,42.2c4.9,12.2-2,33.9-2,33.9"/>
	<path class="st1" d="M557,237.5c-7.5-13-3.6,2.8-3.1,14.5c-3.3-6.2-4.7,2.9-7.4,6c-2.7-3.1-4.1-12.2-7.4-6
		c0.5-11.7,4.4-27.5-3.1-14.5c7.5-16.2,9.7-19.7,3.1-14.5c6.9-5.8,7.2-6,7.4-6c0.2,0,0.5,0.2,7.4,6
		C547.3,217.8,549.5,221.3,557,237.5z"/>
	
		<radialGradient id="SVGID_1_" cx="703.9174" cy="148.8606" r="189.1796" gradientTransform="matrix(1 0 0 1.072 0 -11.1466)" gradientUnits="userSpaceOnUse">
		<stop  offset="0" style="stop-color:#1A1A1A"/>
		<stop  offset="0.7957" style="stop-color:#4D4D4D"/>
		<stop  offset="1" style="stop-color:#4B4B4B"/>
	</radialGradient>
	<polygon class="st2" points="546.1,140.9 721.2,59 893.9,140.9 720,225.8 	"/>
	<linearGradient id="SVGID_2_" gradientUnits="userSpaceOnUse" x1="637" y1="166.1497" x2="803" y2="166.1497">
		<stop  offset="0" style="stop-color:#1A1A1A"/>
		<stop  offset="0.5" style="stop-color:#4D4D4D"/>
		<stop  offset="1" style="stop-color:#202020"/>
	</linearGradient>
	<path class="st3" d="M637,210.8l18-77.4c0,0,30-12,69-12s62,12,62,12l17,77.4"/>
	<linearGradient id="SVGID_3_" gradientUnits="userSpaceOnUse" x1="720" y1="190" x2="720" y2="252">
		<stop  offset="0" style="stop-color:#1A1A1A"/>
		<stop  offset="0.7957" style="stop-color:#4D4D4D"/>
		<stop  offset="1" style="stop-color:#4B4B4B"/>
	</linearGradient>
	<ellipse class="st4" cx="720" cy="210.8" rx="83" ry="23.8"/>
</g>
<g>
	<g>
		<linearGradient id="SVGID_4_" gradientUnits="userSpaceOnUse" x1="230.4175" y1="188.0154" x2="394.7754" y2="188.0154">
			<stop  offset="0" style="stop-color:#1A1A1A"/>
			<stop  offset="0.5" style="stop-color:#4D4D4D"/>
			<stop  offset="1" style="stop-color:#202020"/>
		</linearGradient>
		<path class="st5" d="M248.8,135.9l-18.4,78.9c0,0,84.3,67,164.4,0l-23.4-83.2"/>
		<g>
			<path d="M247.3,135.5c-6.1,26.3-12.2,52.6-18.4,78.9c-0.1,0.5,0,1.1,0.4,1.5c15.5,12.3,35,20.8,54,25.8
				c17.3,4.6,35.4,5.6,53.1,2.7c22.1-3.6,42.3-14.4,59.4-28.5c0.4-0.3,0.5-1,0.4-1.5c-7.8-27.7-15.6-55.5-23.4-83.2
				c-0.5-1.9-3.4-1.1-2.9,0.8c6.7,24,13.5,48,20.2,71.9c1,3.6,2,7.3,3.1,10.9c0.1,0.3-1.8,0.7-2.5,1.3c-3.2,2.6-6.6,5-10.1,7.3
				c-6.1,4.1-12.6,7.5-19.3,10.4c-22.4,9.8-47.6,11.3-71.4,6.3c-16.7-3.5-32.7-10.2-47.3-19c-3.6-2.1-7-4.4-10.4-6.9
				c-1.5-1.1-0.2-0.4-0.4,0.7c0.3-1.2,0.6-2.4,0.8-3.6c5.8-24.9,11.6-49.7,17.4-74.6c0-0.2,0.1-0.4,0.1-0.6
				C250.7,134.4,247.8,133.6,247.3,135.5L247.3,135.5z"/>
		</g>
	</g>
	<g>
		<linearGradient id="SVGID_5_" gradientUnits="userSpaceOnUse" x1="316.1053" y1="87.5" x2="316.1053" y2="227.5036">
			<stop  offset="0" style="stop-color:#1A1A1A"/>
			<stop  offset="0.7957" style="stop-color:#4D4D4D"/>
			<stop  offset="1" style="stop-color:#4B4B4B"/>
		</linearGradient>
		<path class="st6" d="M172.7,127.5c4.4-4.4,145.6-51.8,145.6-51.8l141.2,51.8L316.1,240.6L172.7,127.5z"/>
		<g>
			<path d="M173.7,128.6c1.1-1,4.6-2.2,6.4-2.9c4.8-2,9.7-3.8,14.6-5.6c14.3-5.3,28.7-10.3,43.2-15.3c25.6-8.9,51.2-17.6,76.9-26.3
				c1-0.3,2-0.7,3-1c1.1-0.4,0.5-0.1,0.2-0.2c2.1,0.8,4.2,1.5,6.2,2.3c11.1,4.1,22.2,8.1,33.3,12.2c28.6,10.5,57.2,20.9,85.7,31.4
				c5.3,1.9,10.5,3.9,15.8,5.8c-0.2-0.8-0.4-1.7-0.7-2.5c-39.1,30.8-78.2,61.7-117.2,92.5c-8.7,6.9-17.5,13.8-26.2,20.7
				c0.7,0,1.4,0,2.1,0c-39.1-30.8-78.2-61.7-117.2-92.5c-8.7-6.9-17.5-13.8-26.2-20.7c-1.5-1.2-3.6,0.9-2.1,2.1
				c39.1,30.8,78.2,61.7,117.2,92.5c8.7,6.9,17.5,13.8,26.2,20.7c0.7,0.6,1.4,0.6,2.1,0c39.1-30.8,78.2-61.7,117.2-92.5
				c8.7-6.9,17.5-13.8,26.2-20.7c1-0.8,0.3-2.2-0.7-2.5c-45.4-16.6-90.7-33.2-136.1-49.9c-4.4-1.6-5.5-2.1-9.8-0.6
				c-10.2,3.4-20.5,6.9-30.7,10.4c-29.9,10.2-59.8,20.3-89.4,31.2c-5.2,1.9-10.4,3.8-15.5,5.9c-2.2,0.9-5.1,1.7-6.9,3.3
				C170.2,127.7,172.3,129.9,173.7,128.6z"/>
		</g>
	</g>
	<g>
		<g>
			<path d="M254.1,267c2.1-6.8,3.3-13.9,3.7-20.9c0.5-9.7-3.6-18.4-3.9-28.1c-0.2-8.6,0.6-17.2,1.7-25.7c0.3-2-0.6-0.4,0.4-1.3
				c1.3-1.1,2.6-2.2,3.9-3.3c19.1-15.9,38.1-31.8,57.2-47.7c0,0,0,0,0,0c1.5-1.2-0.6-3.4-2.1-2.1c-18.9,15.8-37.8,31.6-56.8,47.3
				c-1.2,1-5.1,3.1-5.3,4.9c-1,6.7-1.6,13.6-1.9,20.4c-0.2,4.8-0.2,9.6,0.4,14.4c0.5,4.4,2.2,8.3,3,12.6c1.8,9-0.5,19.1-3,27.8
				c-0.1,0.3-0.2,0.5-0.2,0.8C250.6,268,253.5,268.8,254.1,267L254.1,267z"/>
		</g>
	</g>
	<path class="st7" d="M263,287.5c-7.5-13-3.6,2.8-3.1,14.5c-3.3-6.2-4.7,2.9-7.4,6c-2.7-3.1-4.1-12.2-7.4-6
		c0.5-11.7,4.4-27.5-3.1-14.5c7.5-16.2,9.7-19.7,3.1-14.5c6.9-5.8,7.2-6,7.4-6c0.2,0,0.5,0.2,7.4,6
		C253.3,267.8,255.5,271.3,263,287.5z"/>
</g>
<g>
	<g>
		<g>
			
				<linearGradient id="SVGID_6_" gradientUnits="userSpaceOnUse" x1="641.5716" y1="423.3717" x2="695.5711" y2="406.7058" gradientTransform="matrix(0.4102 -0.912 0.912 0.4102 51.8024 1047.4595)">
				<stop  offset="0" style="stop-color:#827F80"/>
				<stop  offset="6.355590e-02" style="stop-color:#999697"/>
				<stop  offset="0.1701" style="stop-color:#B8B6B7"/>
				<stop  offset="0.2858" style="stop-color:#D2D1D1"/>
				<stop  offset="0.412" style="stop-color:#E6E5E6"/>
				<stop  offset="0.5537" style="stop-color:#F4F4F4"/>
				<stop  offset="0.7241" style="stop-color:#FCFCFC"/>
				<stop  offset="1" style="stop-color:#FFFFFF"/>
			</linearGradient>
			<path class="st8" d="M816.5,580.9L617,575.1c0,0-13.6,2.1-18.8,18.2c-5.3,16,13.5,26,22.4,27.8L793,664.4"/>
		</g>
		<path class="st9" d="M678.5,635.1c0,0-26.3-24.4,5.4-58.4l23.6,1c0,0-32.1,35.7,0.3,63.2L678.5,635.1z"/>
		<path class="st10" d="M792.6,666.3l1-3.9l-172.5-43.3c-5.4-1.1-15.4-5.6-19.8-13.1c-2.2-3.8-2.6-7.9-1.2-12.1
			c4.6-13.9,15.5-16.5,17.1-16.8l199.2,5.8l0.1-4l-199.6-5.8l-0.2,0c-0.6,0.1-14.8,2.5-20.4,19.5c-1.8,5.4-1.2,10.6,1.6,15.4
			c5,8.7,16.1,13.7,22.3,15L792.6,666.3z"/>
	</g>
	<g>
		
			<radialGradient id="SVGID_7_" cx="683.9308" cy="489.0969" r="147.6096" gradientTransform="matrix(0.4102 -0.912 0.912 0.4102 51.8024 1047.4595)" gradientUnits="userSpaceOnUse">
			<stop  offset="0" style="stop-color:#827F80"/>
			<stop  offset="6.355590e-02" style="stop-color:#999697"/>
			<stop  offset="0.1701" style="stop-color:#B8B6B7"/>
			<stop  offset="0.2858" style="stop-color:#D2D1D1"/>
			<stop  offset="0.412" style="stop-color:#E6E5E6"/>
			<stop  offset="0.5537" style="stop-color:#F4F4F4"/>
			<stop  offset="0.7241" style="stop-color:#FCFCFC"/>
			<stop  offset="1" style="stop-color:#FFFFFF"/>
		</radialGradient>
		<path class="st11" d="M792.8,645.7c-7.1-5.2-7.5-19.3-0.8-31.5c7.2-13,19.1-19.1,26.8-13.6c8.1,5.9,8.5,21.9,0.9,35.8
			c-8.2,14.8-21.8,21.8-30.5,15.5c-9.3-6.7-9.7-25-1-40.8c9.3-16.9,24.8-24.8,34.7-17.6c10.6,7.6,11.1,28.5,1.2,46.5
			c-10.6,19.2-28.3,28.2-39.5,20.1c-12-8.7-12.6-32.4-1.3-52.9c12-21.9,32.2-32.2,45-22.9c13.7,9.9,14.4,36.9,1.5,60.3"/>
		<path class="st10" d="M834.3,639.9c10.2-22.8,8.4-47.5-4.9-57.2c-4.9-3.5-10.9-4.6-17.4-3.2c-11.4,2.5-22.8,12.5-30.6,26.7
			c-11.7,21.3-10.9,46.3,1.9,55.5c4.3,3.1,9.7,4.1,15.5,2.8c10-2.2,20.1-11.1,27-23.6c10.4-18.9,9.6-40.9-1.7-49.1
			c-3.9-2.8-8.6-3.7-13.8-2.5c-8.9,2-17.8,9.8-23.9,20.8c-9.3,16.9-8.6,36,1.6,43.4c3.5,2.5,7.7,3.3,12.3,2.3
			c7.9-1.8,15.8-8.6,21.1-18.4c8.2-15,7.6-31.8-1.5-38.4c-3.1-2.2-6.9-2.9-11-2c-7,1.6-14,7.6-18.7,16.3c-7.3,13.3-6.7,28.2,1.4,34
			l2.3-3.2c-6.2-4.5-6.3-17.7-0.2-28.9c4.1-7.5,10.3-13,16.1-14.3c2.9-0.7,5.6-0.2,7.8,1.4c7.2,5.2,7.4,20.4,0.3,33.3
			c-4.8,8.8-11.7,14.9-18.5,16.4c-3.4,0.8-6.6,0.2-9.1-1.6c-8.5-6.1-8.7-23.3-0.4-38.2c5.5-10.1,13.5-17.1,21.2-18.8
			c4-0.9,7.6-0.2,10.6,1.9c9.8,7.1,10,26.8,0.6,43.9c-6.3,11.5-15.4,19.6-24.4,21.6c-4.6,1-8.9,0.3-12.3-2.2
			c-11.2-8.1-11.6-30.7-0.8-50.4c7.3-13.2,17.7-22.4,28-24.7c5.3-1.2,10.2-0.3,14.2,2.5c12.9,9.3,13.3,35.2,0.9,57.7l3.5,1.9
			C832.5,643.7,833.4,641.8,834.3,639.9z"/>
	</g>
</g>
<path class="st10" d="M784,429.3l-13,7v23.2l0,0.4c0,0.3,0.8,8.5-6,16.1c-7.8,8.6-22.8,13.2-43.5,13.2c-21,0-36.6-4.7-45.2-13.7
	c-7.4-7.7-7.3-16-7.3-16.1l0-0.3v-20.2l-13-7V459c0,1.9,0,14.5,10.8,25.8c11.4,11.8,29.7,17.8,54.9,17.8c25.2,0,43-6,53.5-17.9
	c9.7-11,9.9-23.2,8.9-25.9V429.3z"/>
<polygon class="st10" points="327.6,467.4 201.1,392.2 328.4,316.6 454.9,391.8 "/>
<path class="st10" d="M327.6,477.2L269,442.3V464c0,14.4,26.4,26,59,26s59-11.6,59-26v-22.1L327.6,477.2z"/>
<rect x="201" y="393" class="st10" width="5" height="50"/>
<ellipse class="st10" cx="203.5" cy="457.7" rx="5.5" ry="26.7"/>
<polyline class="st12" points="201,391 328,390 328,387 188,387 "/>
<g>
	<polygon class="st12" points="825.2,391 717.6,446.8 609.9,391 717.6,335.1 	"/>
	<g>
		<path class="st10" d="M822.1,385.9c-35.9,18.6-71.7,37.1-107.6,56.1c2.1,0,4.1,0,6.2,0c-35.9-19-71.7-37.7-107.7-56.3
			c0,3.5,0,7.1,0,10.6c36-18.6,71.8-38.3,107.7-56.3c-2.1,0-4.1,0-6.2,0c35.9,18,71.7,37.4,107.6,56.1c7,3.6,13.2-6.8,6.2-10.5
			c-26.8-13.9-53.6-27.7-80.4-41.6c-6.6-3.4-13.2-6.8-19.8-10.2c-2.8-1.5-5.9-3.6-8.9-4.5c-3.5-1-8.1,2.4-11.1,3.9
			c-6.3,3.3-12.7,6.6-19,9.9c-27.4,14.2-54.8,28.5-82.2,42.7c-4,2.1-4,8.5,0,10.6c26.8,13.9,53.6,27.8,80.4,41.7
			c6.6,3.4,13.2,6.8,19.8,10.3c2.8,1.5,5.9,3.7,8.9,4.5c3.5,1,8.1-2.4,11.1-3.9c6.3-3.3,12.7-6.6,19-9.9
			c27.4-14.2,54.8-28.3,82.2-42.6C835.3,392.7,829.1,382.3,822.1,385.9z"/>
	</g>
</g>
<g>
	<path class="st10" d="M718,399c0,0,71.8,0,107.6,0c-2-3-4.6-4.8-6.6-6.8c0,21.5,0,42.8,0,64.8c0,8,12,8,12,0c0-22,0-43.3,0-64.8
		c0-3.3-2.1-5.2-5.4-5.2c-35.8,0-71.6,0-107.6,0C710,387,710,399,718,399C718,399,710,399,718,399z"/>
</g>
<ellipse class="st10" cx="825.6" cy="456.6" rx="10.4" ry="23.3"/>
<g>
	<g>
		<linearGradient id="SVGID_8_" gradientUnits="userSpaceOnUse" x1="344.2411" y1="624.2645" x2="295.2405" y2="576.264">
			<stop  offset="0" style="stop-color:#827F80"/>
			<stop  offset="6.355590e-02" style="stop-color:#999697"/>
			<stop  offset="0.1701" style="stop-color:#B8B6B7"/>
			<stop  offset="0.2858" style="stop-color:#D2D1D1"/>
			<stop  offset="0.412" style="stop-color:#E6E5E6"/>
			<stop  offset="0.5537" style="stop-color:#F4F4F4"/>
			<stop  offset="0.7241" style="stop-color:#FCFCFC"/>
			<stop  offset="1" style="stop-color:#FFFFFF"/>
		</linearGradient>
		<path class="st13" d="M246.7,618c4.3-3.6,70.8-58.9,70.8-58.9s25.5-21.7,48.9-3.5c23.4,18.1,8.1,35.6-7.6,57.4
			c-11.1,15.4-40.9,59.5-59.7,58"/>
		<path class="st10" d="M300,673.3c-0.4,0-0.7,0-1.1,0l0.4-4.7c16.1,1.2,43.2-36.9,54.8-53.1c1-1.4,2-2.8,2.8-3.9
			c1-1.4,2.1-2.9,3.1-4.3c14.5-19.9,25-34.3,5-49.9c-21.6-16.7-45,2.6-45.9,3.4c-0.7,0.6-66.6,55.4-70.8,59l-3-3.6
			c4.2-3.5,70.1-58.4,70.8-58.9c0.3-0.2,27.2-22.7,51.8-3.6c25.4,19.7,11.2,35.5-4.1,56.3c-1,1.4-2.1,2.8-3.1,4.3
			c-0.8,1.1-1.8,2.5-2.8,3.9C344.1,637.6,318.6,673.3,300,673.3z"/>
	</g>
	<g>
		<radialGradient id="SVGID_9_" cx="295.5" cy="621.0002" r="108.3196" gradientUnits="userSpaceOnUse">
			<stop  offset="0" style="stop-color:#827F80"/>
			<stop  offset="6.355590e-02" style="stop-color:#999697"/>
			<stop  offset="0.1701" style="stop-color:#B8B6B7"/>
			<stop  offset="0.2858" style="stop-color:#D2D1D1"/>
			<stop  offset="0.412" style="stop-color:#E6E5E6"/>
			<stop  offset="0.5537" style="stop-color:#F4F4F4"/>
			<stop  offset="0.7241" style="stop-color:#FCFCFC"/>
			<stop  offset="1" style="stop-color:#FFFFFF"/>
		</radialGradient>
		<path class="st14" d="M289.1,681.3c-25.8,1.2-48.8-15.2-51.3-36.8c-2.4-20.3,15.3-37.7,39.6-38.8c22.9-1.1,43.4,13.5,45.7,32.7
			c2.2,18-13.6,33.5-35.2,34.5c-20.4,1-38.5-12-40.6-29.1c-1.9-16,12.1-29.8,31.3-30.7c18.1-0.9,34.3,10.7,36.1,25.8
			c1.7,14.3-10.8,26.5-27.8,27.3c-16.1,0.8-30.5-9.5-32.1-23c-1.5-12.7,9.6-23.5,24.8-24.2c14.3-0.7,27.1,8.5,28.5,20.4
			c1.3,11.3-8.5,20.9-22,21.6"/>
		<path class="st10" d="M286.4,683.9c-25.9,0-48.5-17-51.2-39c-1.1-9.3,1.7-18.6,8-26c7.8-9.3,20.2-15,33.9-15.6
			c24.2-1.2,45.8,14.5,48.3,34.9c1,8.4-1.6,16.7-7.2,23.3c-7,8.3-18.1,13.4-30.4,14c-0.7,0-1.5,0.1-2.2,0.1
			c-20.7,0-38.9-13.7-41-31.3c-0.9-7.5,1.4-15,6.5-21c6.3-7.4,16.2-12,27.2-12.5c19.4-0.9,36.7,11.7,38.7,28
			c0.8,6.8-1.3,13.5-5.8,18.8c-5.6,6.7-14.5,10.8-24.4,11.2c-17.4,0.8-32.9-10.5-34.7-25.2c-0.7-6.1,1.1-12.1,5.2-17
			c5.1-6,13-9.7,21.9-10.1c15.6-0.8,29.5,9.4,31.1,22.6c0.7,5.5-1,10.9-4.7,15.3c-4.6,5.4-11.7,8.7-19.7,9.1l-0.2-5
			c6.6-0.3,12.4-3,16.1-7.3c2.8-3.3,4.1-7.3,3.6-11.5c-1.3-10.7-12.9-18.8-25.9-18.2c-7.5,0.4-14.1,3.4-18.3,8.3
			c-3.2,3.8-4.7,8.4-4.1,13.1c1.5,12.1,14.7,21.5,29.5,20.8c8.5-0.4,16.1-3.8,20.8-9.5c3.7-4.3,5.3-9.6,4.7-15
			c-1.7-13.8-16.7-24.4-33.5-23.6c-9.6,0.5-18.2,4.4-23.6,10.8c-4.2,4.9-6.1,11-5.3,17.1c1.9,15.7,18.9,27.7,38,26.8
			c10.9-0.5,20.7-5,26.8-12.2c4.7-5.6,6.9-12.5,6.1-19.5c-2.1-17.8-21.4-31.5-43-30.5c-12.3,0.6-23.4,5.6-30.4,13.8
			c-5.4,6.4-7.8,14.2-6.9,22.2c2.4,20.2,24.3,35.7,48.7,34.6l0.2,5C288.3,683.8,287.3,683.9,286.4,683.9z"/>
	</g>
</g>
<path class="st9" d="M293.4,579.1c0,0,58.7-11.2,57.7,44.6l10.1-14.1c0,0,2.8-50.2-54.2-41.7L293.4,579.1z"/>
</svg>
